<svg width="28" height="28" viewBox="0 0 28 28" fill="none" xmlns="http://www.w3.org/2000/svg">
<path d="M11.899 3.90269L11.8997 3.90215C13.0563 2.97319 14.9351 2.97631 16.1143 3.91547C16.1145 3.91562 16.1146 3.91576 16.1148 3.91591L23.7518 10.0255C24.1437 10.3461 24.4981 10.862 24.7298 11.4685C24.9613 12.0743 25.0419 12.696 24.9661 13.1968L23.498 21.9819C23.4979 21.9828 23.4977 21.9836 23.4976 21.9845C23.2299 23.5179 21.7233 24.7916 20.1835 24.7916H7.81679C6.25146 24.7916 4.78208 23.5508 4.51449 21.9971C4.51439 21.9965 4.51428 21.9959 4.51418 21.9953L3.04482 13.2024L3.04448 13.2004C2.95906 12.6964 3.03413 12.0743 3.26477 11.4694C3.49539 10.8647 3.85395 10.3496 4.25584 10.0289L4.25736 10.0277L11.899 3.90269ZM14.0001 22.7499C14.9617 22.7499 15.7501 21.9615 15.7501 20.9999V17.4999C15.7501 16.5384 14.9617 15.7499 14.0001 15.7499C13.0385 15.7499 12.2501 16.5384 12.2501 17.4999V20.9999C12.2501 21.9615 13.0385 22.7499 14.0001 22.7499Z" stroke="#CCCCCC" stroke-width="1.75"/>
</svg>
